<?xml version="1.0" encoding="UTF-8"?>
<svg version="1.1" viewBox="0 0 900 900" width="1280" height="1280" xmlns="http://www.w3.org/2000/svg">
<path transform="translate(469,158)" d="m0 0h12l26 2 26 5 27 9 27 13 18 12 13 10 12 11 2 1v2l4 2v2h2l7 8 12 15 11 17 12 23 9 24 5 18 4 24 1 10v33l-3 23-6 26-7 20-8 18-11 19-12 17-11 13-9 10-14 13-16 12-14 9-14 8-26 11-23 7-27 5-19 2h-20l-25-3-40-8h-32l-19 5-12 5-15 8-11 8-11 9-10 9-15 15-7 8-9 10-9 11-12 14-8 10-10 11-7 8-10 11-3 1h-15l-17-4-16-8-11-9-9-11-7-12-4-13-2-12v-12l5-7 11-9 12-11 11-9 14-12 11-9 11-10 8-7 13-12 1-2h2l2-4 8-8 14-19 9-16 6-14 4-14 2-17v-10l-2-17-7-33-2-17-1-21 2-25 4-23 6-21 7-19 10-21 11-17 9-12 8-10 12-13 13-12 17-13 19-12 15-8 20-8 24-7 21-4z" fill="#8FC6F7"/>
<path transform="translate(469,158)" d="m0 0h12l26 2 26 5 27 9 27 13 18 12 13 10 12 11 2 1v2l4 2v2h2l7 8 12 15 11 17 12 23 9 24 5 18 4 24 1 10v33l-3 23-6 26-7 20-8 18-11 19-12 17-11 13-9 10-14 13-16 12-14 9-14 8-26 11-23 7-27 5-19 2h-20l-25-3-40-8h-32l-19 5-12 5-15 8-11 8-11 9-10 9-15 15-7 8-9 10-9 11-12 14-8 10-10 11-7 8-10 11-3 1h-15l-17-4-16-8-11-9-9-11-7-12-4-13-2-12v-12l5-7 11-9 12-11 11-9 14-12 11-9 11-10 8-7 13-12 1-2h2l2-4 8-8 14-19 9-16 6-14 4-14 2-17v-10l-2-17-7-33-2-17-1-21 2-25 4-23 6-21 7-19 10-21 11-17 9-12 8-10 12-13 13-12 17-13 19-12 15-8 20-8 24-7 21-4zm-17 21-19 3-22 6-19 7-25 13-16 11-14 11-12 11-9 10-11 14-10 15-7 12-7 15-9 25-5 25-2 15v29l3 22 4 18 8 24 9 19 10 17 10 13 11 13 13 13 11 9 12 9 13 8 23 11 19 7 28 6 13 2h34l27-4 18-5 21-8 16-8 12-7 16-11 8-6 5-5 3-2v-2l4-2 8-8 9-11 7-8 12-20 10-19 7-18 6-24 4-25v-33l-3-23-6-22-8-22-11-21-10-15-8-10-11-12-12-12-14-11-13-9-8-5-23-11-20-7-21-5-18-2z" fill="#4F473D"/>
<path transform="translate(452,179)" d="m0 0h41l24 3 22 6 24 10 15 8 11 7 12 9 13 11 16 16 11 14 10 15 11 21 9 25 5 19 3 23v33l-5 30-6 21-8 20-10 19-11 17-12 14-11 12-4 2v2l-7 5-5 5-14 10-14 9-16 8-19 8-16 5-14 3-21 3h-34l-28-5-19-5-20-8-20-10-16-11-11-9-13-12-9-9-8-10-11-15-13-24-5-11-8-25-4-20-2-17v-29l4-27 5-19 9-24 10-19 12-18 13-16 15-16 14-11 14-10 17-10 21-10 22-7 16-4zm-2 2-22 4-21 6-20 8-15 8-17 11-12 9-16 15-12 13v2h-2l-10 14-10 17-8 16-6 16-6 22-4 23-1 16v22l3 26 6 22 7 18 11 22 11 16 9 11 9 10 5 6 8 7 7 6 17 12 14 8 20 9 21 7 20 4 16 2h35l18-2 20-5 14-5 12-7 11-8 13-11 5-4v-2l4-2 10-10 11-14 8-12 5-8 4-7 8-16 5-12 7-20 5-23 2-15 1-18v-19l-2-23-4-19-8-25-8-19-9-17-7-10-14-19-24-24-14-11-11-7-7-4-11-4-17-4-15-2z" fill="#7096B7"/>
<path transform="translate(720,551)" d="m0 0h23l10 3 11 6 11 10 7 11 5 14 1 5v12l-4 15-7 12-9 10-11 7-11 4-5 1h-20l-12-4-9-5-10-9-7-10-5-12-2-9v-11l2-10 5-12 8-11 9-8 16-8z" fill="#50483E"/>
<path transform="translate(207,607)" d="m0 0 4 1 38 38 1 4-12 14-9 11-11 14-12 13-7 8-9 10-6 4h-8l-14-6-9-7-9-9-7-12-3-11v-8l13-13 11-9 14-12 11-9 14-12z" fill="#FDCB87"/>
<path transform="translate(277,503)" d="m0 0 4 4 6 9 8 11 9 10 7 8 14 13 14 11 10 7 3 2v2l-19 7-18 8-13 8-4 3h-2v2l-13 10-10 9-7 6h-2v-2l-4-2-12-11-24-24 1-4 12-13 12-15 9-14 9-17 7-19z" fill="#FCCA87"/>
<path transform="translate(727,571)" d="m0 0h10l11 3 8 6 7 8 4 13v11l-3 9-6 9-11 9-6 2h-18l-12-6-5-5-6-8-3-8-1-4v-9l4-11 6-8 9-7 7-3z" fill="#FCFBFA"/>
<path transform="translate(241,639)" d="m0 0 7 6 2 5-12 14-9 11-11 14-12 13-7 8-9 10-6 4h-8l-7-3 4-2 7-7 7-8 12-14 26-32 1-2h2l2-4 8-9 2-1z" fill="#B9A992"/>
<path transform="translate(344,573)" d="m0 0 8 5v2l-19 7-18 8-13 8-4 3h-2v2l-13 10-10 9-7 6h-2v-2l-4-2-12-11-1-2 4 2 4 4 5-1 6-6h2v-2l9-7 3-1v-2l12-8 12-7 16-7 16-5 7-1z" fill="#B9A992"/>
<path transform="translate(727,571)" d="m0 0h10l11 3 8 6 7 8 4 13v11l-3 9-6 9-11 9-6 2h-18l-12-6-1-2 5 2 7 3 5 1h7l7-3 4-6 4-14v-19l-3-12-6-10-6-2-11 1-6 1 2-2z" fill="#B7A892"/>
<path transform="translate(626,281)" d="m0 0 3 4 9 22 8 28 2 11 2 26v16l-2 26-4 21-4 15-9 24-8 17-4 5-5 10-16 22-12 13-4 4h-2l-2 4-11 9-10 8-11 7-12 6-16 5-13 3-18 2h-35l-23-3v-1l22 1h41l13-2 15-3 12-4 10-5 5-3h2v-2l12-9 10-9 3-1v-2l11-9 10-10 7-10h2l2-5 6-9 8-14 5-10 12-28 8-33 2-18v-41l-4-24-6-21-6-18-5-12z" fill="#88BBEC"/>
<path transform="translate(489,350)" d="m0 0h9l5 3 3 4-1 5-5 1-1 6-2 1v7l1 7-4 4h-2v6l-4 4-9 2-5-1 1-8 2-4 5-2 1-10 1-5-2-6v-8l2-4z" fill="#88BBEC"/>
<path transform="translate(283,309)" d="m0 0 1 3-7 24-4 21-2 15-1 22 1 27h-1l-2-18v-22l2-23 4-20 8-27z" fill="#88BBEC"/>
</svg>
