<?xml version="1.0" encoding="UTF-8"?>
<svg version="1.1" viewBox="0 0 2000 2000" width="1280" height="1280" xmlns="http://www.w3.org/2000/svg">
<path transform="translate(1329,413)" d="m0 0h37l26 2 30 5 30 7 23 7 29 12 19 9 18 10 23 15 19 14 11 9 10 9 8 7 20 20 7 8 13 16 13 18 11 17 12 21 14 28 9 24 9 29 7 30 4 26 2 23v49l-3 31-5 27-7 28-11 33-11 25-11 22-10 17-12 18-12 16-9 10-11 13-9 10-15 15-11 9-10 9-19 14-17 11-15 9-27 14-32 13-7 9-9 16-9 21-6 18-5 21-4 24-2 36v28l2 43 10 121 1 17v18l-4 7-12 12-15 11-19 10-18 6-16 3-21 1-18-2-19-5-16-7-12-7-14-11-9-8v-2h-2l-3-5-1-4v-24l5-63 4-49 3-58v-39l-4-40-4-22-8-27-9-22-10-18-7-9-28-12-5-3h-3l-8 11-9 11-12 14-12 13-13 13-8 7-14 12-19 14-18 12-21 12-17 9-28 12-33 11-29 7-23 4-35 4h-44l-29-3-24-4-30-7-36-12-24-10-9 1-23 6-24 10-20 11-16 11-13 10-11 9-11 10-8 7-20 20-7 8-13 14-9 11-13 15-22 26-9 11-14 17-9 10-9 11-8 8-7 8-8 8-4 2h-24l-17-3-17-5-17-8-12-8-13-11-8-8-12-16-10-19-5-15-4-21-1-21 3-8 12-12 8-7 10-9 11-9 10-9 11-9 14-12 11-9 14-12 11-9 15-14 8-7 10-9 9-9 7-6 7-8 8-8 9-11 11-13 12-17 9-15 8-15 8-19 6-20 2-10v-8l-11-27-7-20-6-21-5-23-4-27-2-24v-40l3-33 5-28 7-28 11-33 10-23 12-24 13-22 14-20 10-13 11-13 9-10 1-2h2l2-4 15-15 8-7 13-11 13-10 17-12 23-14 16-9 31-14 24-9 29-8 31-6 22-3 14-1h52l31 3 27 5 21 5 25 8 21 8 10 4 2-5 10-13 9-11 9-10 7-8 23-23 11-9 12-10 15-11 20-13 25-14 28-13 27-10 32-9 28-5 24-3z" fill="#42535C"/>
<path transform="translate(1329,413)" d="m0 0h37l26 2 30 5 30 7 23 7 29 12 19 9 18 10 23 15 19 14 11 9 10 9 8 7 20 20 7 8 13 16 13 18 11 17 12 21 14 28 9 24 9 29 7 30 4 26 2 23v49l-3 31-5 27-7 28-11 33-11 25-11 22-10 17-12 18-12 16-8 9-592 1-13-16-12-17-8-13-10-18-9-17-10-22-8-23-8-26-5-22-4-24-3-25v-65l3-17 2-16 3-16 4-14 3-14 4-11 6-17 10-24 10-19 9-15 7-14 4-7 2-3 3 1 2-5 10-13 9-11 9-10 7-8 23-23 11-9 12-10 15-11 20-13 25-14 28-13 27-10 32-9 28-5 24-3z" fill="#F2394D"/>
<path transform="translate(1052,1054)" d="m0 0h590l-6 8-9 11-20 20-11 9-10 9-19 14-17 11-15 9-27 14-32 13-7 9-9 16-9 21-6 18-5 21-4 24-2 36v28l2 43 10 121 1 17v18l-4 7-12 12-15 11-19 10-18 6-16 3-21 1-18-2-19-5-16-7-12-7-14-11-9-8v-2h-2l-3-5-1-4v-24l5-63 4-49 3-58v-39l-4-40-4-22-8-27-9-22-10-18-7-9-28-12-5-3-6-1-16-8-25-15-12-8-15-11-13-11-8-7-30-30-8-10z" fill="#CCA975"/>
<path transform="translate(480,903)" d="m0 0 173 173 3 2v2l4 2 14 15 11 11 3 2v2l4 2 7 8 9 8 7 8 9 8 7 8 53 53 4 3v2h2l7 8 49 49 2 1v2l4 2v2h2l7 8 7 7 4 3v2l4 2v2h2v2h2v2l4 2v2l4 2 8 9v2l-13 2h-44l-29-3-24-4-30-7-36-12-24-10-9 1-23 6-24 10-20 11-16 11-13 10-11 9-11 10-8 7-20 20-7 8-13 14-9 11-13 15-22 26-9 11-14 17-9 10-9 11-8 8-7 8-8 8-4 2h-24l-17-3-17-5-17-8-12-8-13-11-8-8-12-16-10-19-5-15-4-21-1-21 3-8 12-12 8-7 10-9 11-9 10-9 11-9 14-12 11-9 14-12 11-9 15-14 8-7 10-9 9-9 7-6 7-8 8-8 9-11 11-13 12-17 9-15 8-15 8-19 6-20 2-10v-8l-11-27-7-20-6-21-5-23-4-27-2-24v-40l1-13z" fill="#CCA975"/>
<path transform="translate(480,903)" d="m0 0 173 173 3 2v2l4 2 14 15 11 11 3 2v2l4 2 7 8 9 8 7 8 9 8 7 8 53 53 4 3v2h2l7 8 49 49 2 1v2l4 2v2h2l7 8 7 7 4 3v2l4 2v2h2v2h2v2l4 2v2l4 2 8 9v2l-13 2h-44l-29-3-24-4-30-7-36-12-21-9 4-2h2v-2h2v-2h-2v-2l-5-2-6-3v-2l-5-1-14-6-14-8-10-7-11-8-4-3v-2l-4-1v-2l-4-2-5-4-3-1v-2l-4-1v-2h-2v-2l-4-2-7-6v-2h-2l-7-8-14-14v-2h-2v-2l-3-1-7-9v-2h-2l-6-8v-3h-2l-6-9-7-10-9-13-11-19-6-10-2-1-3 1v-2h-2l-10-24-7-20-6-21-5-23-4-27-2-24v-40l1-13z" fill="#E2BA7F"/>
<path transform="translate(1052,1054)" d="m0 0h590l-6 8-9 11-20 20-11 9-10 9-19 14-17 11-15 9-27 14-17 7-6-1-5-1-7 1-11 1-12 3-18 3-10 2-19 3-21 4-10 2-19 2h-32l-35-5-18-3-21-4-17-5-7-3-8-1 3 7-9-3-21-9-3-2-6-1-16-8-25-15-12-8-15-11-13-11-8-7-30-30-8-10z" fill="#E2BA7F"/>
<path transform="translate(1053,1377)" d="m0 0 19 1 16 4 12 5 14 9 12 11 8 9 8 13 6 14 3 12 1 7v21l-3 16-5 13-7 13-7 9-8 9-12 9-17 9-16 5-17 2-18-1-17-4-14-6-12-8-12-11-9-11-8-14-4-9-4-16-1-8v-15l4-20 5-13 6-11 10-13 8-8 14-10 14-7 14-4z" fill="#FD9F09"/>
<path transform="translate(884,1308)" d="m0 0 4 2 8 9v2h-9l2-4-3-5z" fill="#CCA975"/>
</svg>
